# xmcd
#
# Track frame offsets:
#	150
#	19027
#	32117
#	47757
#	66122
#	82280
#	104322
#	126002
#	145100
#	162842
#	174345
#	189725
#	206512
#	236947
#	249100
#	264095
#
# Disc length: 3705 seconds
#
# Revision: 0
# Processed by: cddbd v1.4PL0 Copyright (c) Steve Scherf et al.
# Submitted via: dBpowerAMP V4.0
#
DISCID=d70e7710
DTITLE=Nicolas PEYRAC - L'essentiel
DYEAR=1900
DGENRE=
TTITLE0=So Far Away From L.A.
TTITLE1=Et mon père
TTITLE2=Ce serait trop bête que tu partes avant moi
TTITLE3=Aimer
TTITLE4=Je pars (Le vol de nuit s'en va)
TTITLE5=Il neige sur Madrid
TTITLE6=Mourir à Harlem
TTITLE7=Mississipi River
TTITLE8=Good Bye California
TTITLE9=Ca Serait Marrant
TTITLE10=Le vin me Saoule
TTITLE11=Jumbo
TTITLE12=J'avais un Fils
TTITLE13=La Panthère
TTITLE14=Napoléon
TTITLE15=Les Cocotiers Bleus
EXTD=
EXTT0=
EXTT1=
EXTT2=
EXTT3=
EXTT4=
EXTT5=
EXTT6=
EXTT7=
EXTT8=
EXTT9=
EXTT10=
EXTT11=
EXTT12=
EXTT13=
EXTT14=
EXTT15=
PLAYORDER=
